HIERARCHY
ROOT hip
{
	OFFSET 0.000000 0.000000 0.000000 
	CHANNELS 6 Xposition Yposition Zposition Xrotation Zrotation Yrotation
	JOINT abdomen
	{
		OFFSET 0.000000 3.402643 0.000000 
		CHANNELS 3 Xrotation Zrotation Yrotation
		JOINT chest
		{
			OFFSET 0.000000 8.438565 -0.680529 
			CHANNELS 3 Xrotation Zrotation Yrotation
			JOINT neck
			{
				OFFSET 0.000000 10.207942 -0.272212 
				CHANNELS 3 Xrotation Zrotation Yrotation
				JOINT head
				{
					OFFSET 0.000000 3.130431 0.000000 
					CHANNELS 3 Xrotation Zrotation Yrotation
					End Site
					{
						OFFSET 0.000000 3.130435 0.000000 
					}
				}
			}
			JOINT lCollar
			{
				OFFSET 3.470700 6.669187 -0.816635 
				CHANNELS 3 Yrotation Zrotation Xrotation
				JOINT lShldr
				{
					OFFSET 3.198488 0.000000 0.000000 
					CHANNELS 3 Zrotation Yrotation Xrotation
					JOINT lForeArm
					{
						OFFSET 10.139888 0.000000 0.000000 
						CHANNELS 3 Yrotation Zrotation Xrotation
						JOINT lHand
						{
							OFFSET 8.370511 0.000000 0.000000 
							CHANNELS 3 Zrotation Yrotation Xrotation
							End Site
							{
								OFFSET 4.083176 0.000000 0.000000 
							}
						}
					}
				}
			}
			JOINT rCollar
			{
				OFFSET -3.470700 6.669187 -0.816635 
				CHANNELS 3 Yrotation Zrotation Xrotation
				JOINT rShldr
				{
					OFFSET -3.198488 0.000000 0.000000 
					CHANNELS 3 Zrotation Yrotation Xrotation
					JOINT rForeArm
					{
						OFFSET -10.139888 0.000000 0.000000 
						CHANNELS 3 Yrotation Zrotation Xrotation
						JOINT rHand
						{
							OFFSET -8.370511 0.000000 0.000000 
							CHANNELS 3 Zrotation Yrotation Xrotation
							End Site
							{
								OFFSET -4.083176 0.000000 0.000000 
							}
						}
					}
				}
			}
		}
	}
	JOINT lThigh
	{
		OFFSET 5.308129 -1.633274 1.361059 
		CHANNELS 3 Xrotation Zrotation Yrotation
		JOINT lShin
		{
			OFFSET -2.041588 -20.007561 0.000000 
			CHANNELS 3 Xrotation Zrotation Yrotation
			JOINT lFoot
			{
				OFFSET 0.000000 -19.190928 -1.224953 
				CHANNELS 3 Xrotation Yrotation Zrotation
				End Site
				{
					OFFSET 0.000000 -2.449906 4.627600 
				}
			}
		}
	}
	JOINT rThigh
	{
		OFFSET -5.308129 -1.633274 1.361059 
		CHANNELS 3 Xrotation Zrotation Yrotation
		JOINT rShin
		{
			OFFSET 2.041588 -20.007561 0.000000 
			CHANNELS 3 Xrotation Zrotation Yrotation
			JOINT rFoot
			{
				OFFSET 0.000000 -19.190928 -1.224953 
				CHANNELS 3 Xrotation Yrotation Zrotation
				End Site
				{
					OFFSET 0.000000 -2.449906 4.627600 
				}
			}
		}
	}
}
MOTION
Frames: 18
Frame Time: 0.033333
-8.499244 43.404430 -51.160526 2.978516 -6.503907 48.691406 25.458984 4.609375 -0.937500 -11.660156 -0.683594 -1.455078 -21.738281 -1.181641 -20.586142 7.714844 2.441406 -20.517164 -0.380859 7.646485 0.214844 -81.445313 -37.480469 55.019531 -64.150383 -2.197266 -11.816031 2.832031 3.007812 -0.117188 -5.791016 3.105469 -0.234904 66.406250 29.443361 14.169922 66.406250 3.164063 -33.359379 -27.480471 32.187500 -14.511719 -21.784777 21.547438 21.481520 49.119492 -0.265336 -2.955322 -25.824186 0.992980 -6.749601 -42.875473 -15.827311 -8.474142 47.724689 -0.029448 2.755548 -5.604936 -0.292274 6.969797 
-8.615968 43.377651 -51.117527 2.460938 -7.216797 49.539787 25.468752 4.423828 -1.542216 -11.826172 -0.156250 -1.982422 -22.626951 -1.523438 -20.400648 8.242188 2.968750 -20.136721 -0.410156 7.812500 0.390625 -81.787109 -37.841797 55.039066 -63.271484 -2.148437 -11.728516 1.054688 4.755844 -0.184737 -6.328125 2.041015 -0.146832 67.636719 29.746092 14.594688 65.361328 2.939453 -30.723158 -27.685545 26.718750 -12.573735 -23.014107 22.248919 20.012211 49.638798 -0.560475 -2.751632 -25.794672 0.497123 -6.850035 -42.687557 -15.289433 -8.297492 47.900360 0.163490 2.844687 -5.726091 -1.531494 6.814922 
-8.767465 43.315990 -50.990715 1.757813 -7.568360 50.976563 25.458984 3.730469 -2.294896 -11.992188 0.371094 -2.343684 -23.505859 -1.699219 -20.390915 8.945313 3.681641 -20.106796 -0.410156 8.339853 0.389208 -82.753906 -38.144527 55.244141 -61.435551 -2.333985 -14.853515 -2.919922 7.333985 -0.664063 -6.855469 0.625000 -0.117188 69.580078 29.863281 14.282206 64.560547 2.822266 -27.558590 -25.683592 15.966797 -7.096923 -23.866232 23.093781 18.875614 50.170090 -0.265327 -3.354490 -25.766680 0.275936 -7.213516 -42.278328 -14.733257 -8.660292 48.251976 0.173131 2.855447 -6.354379 -2.660979 6.704851 
-8.924643 43.216072 -50.760860 0.869141 -7.734374 52.558598 25.800781 2.656250 -2.987828 -12.158203 1.074219 -2.704895 -24.550779 -2.412109 -20.527752 9.824219 4.912109 -20.243305 -0.234375 8.701172 0.371094 -83.808594 -37.900391 55.052593 -59.375000 -2.607422 -19.774946 -9.931641 11.445635 -2.380997 -7.382812 -1.513672 -0.029039 72.050781 30.908205 14.746093 62.314453 3.017578 -26.982424 -23.515625 7.265625 -3.074936 -24.568758 24.137825 17.210102 50.714378 -0.560629 -3.010319 -25.464750 -0.738269 -7.658804 -41.584194 -14.390928 -9.325185 49.312691 -0.012194 2.640093 -6.958435 -3.756078 6.404414 
-9.059098 43.071995 -50.405586 -0.351563 -7.568360 53.935547 26.318357 1.191406 -3.623047 -12.158202 1.425781 -2.704835 -25.400391 -3.486328 -21.005857 11.064453 6.142578 -20.722658 -0.234375 8.701172 0.371094 -84.033203 -37.363281 56.542965 -57.714848 -2.910156 -29.462893 -16.083984 14.501953 -4.636225 -7.890625 -4.023438 0.146484 74.140625 33.564449 17.324219 58.203129 3.056641 -30.527864 -20.458984 -0.410156 -0.126953 -24.771425 25.773796 16.581636 51.236912 -0.255686 -3.053106 -25.576647 -2.192467 -8.419157 -41.052742 -14.032389 -10.356651 50.700760 -0.000072 2.902181 -8.054281 -4.566993 6.393192 
-9.173967 42.895809 -49.944958 -1.767578 -7.207031 55.195313 27.011719 -0.419922 -3.740235 -12.343750 0.195313 -2.353514 -26.015625 -2.138672 -22.304688 11.943359 6.142578 -21.562500 -0.595703 9.921875 0.428005 -83.134766 -35.839848 58.974613 -58.378902 -3.330078 -39.491623 -20.009768 15.195313 -6.054688 -8.574219 -5.263671 0.087891 76.318359 38.134766 23.726734 53.076172 3.115234 -33.544922 -20.019531 -10.273438 3.152555 -24.792574 27.397766 15.281014 51.913765 -0.275613 -3.259790 -25.361391 -3.277834 -8.723699 -40.404461 -13.874052 -12.010193 53.010345 -0.021485 2.814449 -8.703986 -4.953938 6.198932 
-9.255917 42.682762 -49.376289 -2.988281 -6.865235 56.043758 27.539063 -2.089844 -3.701528 -12.539062 -0.849609 -1.660305 -26.650391 -2.011719 -23.369141 13.183593 6.484375 -22.373049 -0.957031 10.097656 0.496335 -82.109375 -34.062500 60.668358 -62.060547 -3.417969 -46.649815 -22.021484 13.798828 -6.162109 -9.042969 -7.080078 0.283203 77.744141 44.980469 36.198311 46.826172 3.095703 -36.455074 -18.427734 -14.570312 4.060045 -24.069929 29.457714 15.105767 52.632641 -0.451192 -3.184261 -25.441023 -4.348379 -9.412265 -39.870945 -13.358479 -13.751298 55.276470 -0.185386 3.022372 -9.270138 -4.798314 5.860154 
-9.293126 42.447342 -48.718376 -4.394532 -6.337891 56.601566 27.890627 -3.466797 -3.379497 -12.548828 -2.080078 -0.957031 -27.314451 -2.041015 -24.062851 14.765624 6.660156 -23.007813 -1.279297 9.746095 0.380859 -81.328125 -32.626953 60.644531 -67.978516 -3.642578 -55.732422 -20.527344 11.630859 -4.853516 -9.160156 -8.525390 0.372542 78.388672 53.964844 53.796959 43.183590 3.398438 -41.230473 -15.576173 -17.148436 4.003906 -23.337440 31.654629 14.742040 53.171349 -0.395000 -2.875316 -25.554960 -5.857184 -10.030812 -39.703537 -13.347563 -16.017860 58.078022 -0.868875 3.146225 -8.649528 -2.857970 6.212207 
-9.272378 42.165913 -47.988823 -5.458984 -6.152344 56.952076 27.900391 -4.462891 -3.134766 -12.568359 -3.662110 -0.254530 -28.164063 -2.236328 -24.414063 16.708984 7.001953 -23.095703 -1.806641 8.867188 0.437948 -81.503906 -31.816408 59.574932 -75.341797 -3.544922 -63.270878 -15.927734 7.021484 -2.431641 -9.306641 -9.775391 0.341797 79.150391 64.326172 72.500000 43.701172 3.437500 -42.608009 -10.478517 -17.734375 2.539063 -22.665779 33.836918 15.148178 53.855328 -0.092494 -3.276668 -25.976982 -6.608716 -10.755735 -40.202621 -13.855895 -17.026489 61.765141 -0.712864 3.197840 -5.582795 1.067330 6.964684 
-9.180691 41.837879 -47.185326 -6.337891 -5.800781 56.777340 27.558596 -5.234375 -2.998938 -12.763672 -5.419922 0.086968 -28.369141 -2.568359 -24.042971 18.828125 7.519532 -22.654968 -2.138672 8.164063 0.291582 -83.261719 -32.412109 57.714848 -82.255859 -3.564453 -68.554085 -7.910156 0.117188 -0.195313 -9.091797 -10.322266 0.458984 81.191406 75.341797 87.909843 48.046875 3.291016 -40.996094 -5.410157 -15.263673 0.791016 -21.601013 35.916233 15.503958 54.557838 -0.082296 -3.305413 -26.403685 -7.639578 -11.094408 -41.410881 -15.064891 -17.751755 65.445091 -1.055475 3.289395 -2.753582 6.684824 7.048487 
-9.011344 41.430908 -46.320152 -6.689453 -5.634766 56.415497 26.855469 -5.625000 -2.930645 -13.300781 -7.001954 0.057403 -28.427734 -3.056641 -23.145052 20.781250 8.037109 -21.697853 -2.128906 7.812500 0.283203 -86.103516 -35.136715 53.593746 -88.798828 -3.564453 -71.102913 0.556641 -5.781250 0.000000 -9.628906 -10.664063 0.314307 -84.609375 92.968750 -72.285172 55.839848 3.242188 -36.856022 0.830078 -11.953126 -0.644531 -20.213202 37.864006 16.020641 55.419388 -0.092606 -3.535786 -26.761312 -7.601632 -11.123198 -42.846695 -16.841860 -17.965450 68.618851 -1.074181 3.076892 -0.905192 12.543230 7.101661 
-8.739297 40.945244 -45.388340 -6.689453 -5.283307 55.184135 25.996096 -5.859375 -3.370137 -14.189454 -8.222656 -0.146484 -28.173828 -4.042969 -21.513672 22.724609 8.369141 -20.203657 -1.953125 7.988281 0.263672 -89.619141 -41.269531 48.011139 -93.515625 -3.486328 -70.897842 8.115234 -10.585938 -1.339685 -10.634766 -10.908203 0.419922 -99.091797 81.054688 -89.707031 64.912109 2.910156 -30.254402 7.490235 -8.544922 -1.476059 -18.280277 39.610321 17.638556 56.297649 0.082936 -3.479162 -27.070143 -8.150625 -11.727276 -44.612530 -18.783613 -17.826122 70.535583 -1.250004 3.403192 -0.663698 15.392019 7.043374 
-8.353544 40.382256 -44.379673 -6.337891 -4.921875 53.437496 24.960938 -5.878906 -3.945313 -15.419921 -9.091796 -0.548418 -28.330080 -5.156250 -19.160158 24.843750 8.349609 -18.183592 -1.269531 8.515625 0.351563 -93.349609 -50.771484 42.687744 -95.087891 -3.613281 -64.433594 14.736328 -15.625002 -3.642578 -12.216798 -10.615236 0.361328 -93.037109 68.583984 -91.494820 74.228516 2.695313 -23.876955 13.164062 -4.335938 -1.259766 -15.322678 40.776402 19.758223 57.020100 0.052210 -3.519412 -28.172684 -7.680473 -11.760599 -47.232143 -21.236874 -16.595606 70.877937 -1.240254 3.404116 -1.525831 14.838508 6.960705 
-7.809684 39.770821 -43.296246 -5.458984 -4.580078 50.976166 23.574219 -6.054688 -4.550781 -16.640625 -9.248047 -1.123047 -29.189451 -6.611328 -16.612452 26.787109 8.154297 -15.820314 -0.234375 9.052734 0.371094 -97.890625 -62.919922 38.945316 -94.824219 -3.476563 -51.289066 18.828125 -16.435547 -5.100420 -14.511719 -9.638673 0.372729 -88.701172 55.927734 -98.798828 82.246094 2.470703 -19.208982 17.978516 -1.191406 -0.595904 -10.928173 41.433552 23.329134 57.019211 0.228019 -3.437872 -29.494192 -7.005892 -11.654230 -49.860329 -23.337439 -15.214523 68.944969 -1.250139 3.341012 -2.604264 11.854093 7.415744 
-7.111662 39.123920 -42.127502 -4.228463 -4.394477 48.329689 22.001953 -5.859375 -5.225606 -17.333984 -8.369141 -1.847124 -30.771484 -7.861911 -13.710952 28.193361 7.431641 -13.485067 0.625000 9.404297 0.400391 -103.837891 -76.767578 41.083984 -92.675781 -3.281250 -38.574223 20.693359 -14.980468 -5.273437 -17.929688 -7.753906 0.235693 -85.527344 44.755863 -111.448204 87.333984 2.548828 -17.880857 21.445313 0.273438 -0.039063 -6.182905 41.286118 26.482687 57.020081 0.062175 -3.514262 -30.686510 -5.515920 -10.933449 -52.731796 -25.486315 -13.289636 65.444275 -1.064315 3.303203 -4.049282 9.514601 7.417666 
-6.295179 38.471565 -40.872295 -2.822266 -4.228463 45.692280 20.595703 -5.263671 -5.957031 -18.203125 -7.304688 -2.939453 -32.158203 -8.242188 -11.054688 28.710939 6.542969 -11.356307 1.835937 10.126952 0.341797 -26.328119 -92.734375 -37.060535 -88.691406 -2.812500 -26.318356 22.441406 -13.125001 -5.117187 -21.542971 -4.882813 0.117187 -81.181641 36.572266 -124.921875 89.228516 2.509766 -19.648865 21.953127 1.933594 0.635097 -2.044732 40.101479 28.520004 56.668823 0.062345 -3.497561 -30.875450 -3.228963 -9.470131 -55.522152 -27.408220 -11.830425 60.694946 -1.044546 3.314987 -3.870517 8.167777 7.403600 
-5.444037 37.833122 -39.532700 -1.416016 -4.394531 43.593002 19.355469 -4.179688 -7.099609 -19.414063 -5.888671 -4.384766 -32.802731 -8.105469 -8.751378 28.515625 5.488281 -9.257812 3.154297 11.738281 0.546875 -80.390625 -104.453125 17.119452 -83.535156 -2.460938 -18.456612 23.281250 -11.650391 -4.628906 -24.248045 -2.041015 0.010113 -74.736328 31.738283 -135.141342 88.779297 2.529297 -20.703556 18.261719 1.142578 0.253906 2.040248 38.397476 30.331213 55.452606 -0.113522 -3.180281 -30.985243 -0.371421 -7.609901 -58.677029 -28.795628 -9.188254 55.633419 -0.371089 2.770972 -3.283886 7.539358 7.456057 
-4.639724 37.218327 -38.086002 0.166016 -4.921872 41.991367 18.632813 -2.666016 -8.466797 -20.625000 -3.779297 -6.192050 -33.281250 -8.144532 -6.435547 27.978514 4.619141 -7.167968 5.136719 13.564452 0.632475 -82.353516 -116.562508 19.423826 -77.519531 -2.207031 -12.802734 22.500000 -9.658203 -3.927420 -26.025391 -0.078125 -0.087891 -66.220695 28.554689 -138.120331 85.126953 2.626953 -20.185995 11.044923 1.914063 0.332359 5.222341 36.687679 31.057564 53.695950 -0.113284 -3.104908 -30.447866 2.444932 -5.981083 -61.819946 -29.859488 -6.138251 51.419121 -0.185504 2.675723 -4.094171 7.176139 7.567652 
